Coordinates
version=1
nRows=4
nColumns=63
inDegrees=yes

Units are S.I. units (second, meters, Newtons, ...)
If the header above contains a line with 'inDegrees', this indicates whether rotational values are in degrees (yes) or radians (no).

endheader
time	pelvis_tilt	pelvis_list	pelvis_rotation	pelvis_tx	pelvis_ty	pelvis_tz	hip_flexion_r	hip_adduction_r	hip_rotation_r	knee_angle_r	knee_angle_r_beta	ankle_angle_r	subtalar_angle_r	mtp_angle_r	hip_flexion_l	hip_adduction_l	hip_rotation_l	knee_angle_l	knee_angle_l_beta	ankle_angle_l	subtalar_angle_l	mtp_angle_l	L5_S1_Flex_Ext	L5_S1_Lat_Bending	L5_S1_axial_rotation	L4_L5_Flex_Ext	L4_L5_Lat_Bending	L4_L5_axial_rotation	L3_L4_Flex_Ext	L3_L4_Lat_Bending	L3_L4_axial_rotation	L2_L3_Flex_Ext	L2_L3_Lat_Bending	L2_L3_axial_rotation	L1_L2_Flex_Ext	L1_L2_Lat_Bending	L1_L2_axial_rotation	L1_T12_Flex_Ext	L1_T12_Lat_Bending	L1_T12_axial_rotation	Abs_r3	Abs_r2	Abs_r1	Abs_t1	Abs_t2	neck_flexion	neck_bending	neck_rotation	arm_flex_r	arm_add_r	arm_rot_r	elbow_flex_r	pro_sup_r	wrist_flex_r	wrist_dev_r	arm_flex_l	arm_add_l	arm_rot_l	elbow_flex_l	pro_sup_l	wrist_flex_l	wrist_dev_l
      2.64406780	      2.85813339	     -2.25998075	    100.62896992	      0.23858677	      0.64512501	      0.89211455	      7.39503862	      4.10569163	     -5.93305979	     16.08648358	      0.28076210	     30.54926620	     -7.15935372	      0.00000000	      6.64238011	     -1.85998645	     -5.79485942	     14.22602212	      0.24829093	     34.18530302	      4.16982167	      0.00000000	     -0.00831569	      0.41582502	      0.09498610	     -0.01544307	      0.55304728	      0.10092273	     -0.01366185	      1.01103695	      0.10092273	     -0.00950400	      1.01103695	      0.08311283	     -0.00772195	      0.84795038	      0.07717620	     -0.00475159	      0.64411295	      0.07123957	     -0.05939815	      4.70389578	      0.52828417	      0.00000000	      0.00000000	      9.39325134	      1.98032907	     -3.57759344	     15.36252567	    -21.11387643	     36.27983598	     68.08368817	     88.47106648	     -8.00786464	     -5.66113356	      3.20696406	    -16.86577467	     36.08397786	     51.93887543	     72.93619382	     -1.63863531	    -10.45563388
      2.66101695	      3.07844815	     -2.34470299	    100.93907106	      0.23719089	      0.64521873	      0.89267075	      7.53463100	      4.12363370	     -6.67749988	     15.92773684	      0.27799145	     30.87876845	     -6.43982709	      0.00000000	      6.81689637	     -1.89460213	     -4.93021351	     14.14059270	      0.24679990	     33.99733196	      3.34211564	      0.00000000	     -0.00410878	      0.46853954	     -0.02780920	     -0.00763041	      0.62315758	     -0.02954728	     -0.00675031	      1.13920703	     -0.02954728	     -0.00469592	      1.13920703	     -0.02433305	     -0.00381541	      0.95544582	     -0.02259498	     -0.00234776	      0.72576774	     -0.02085690	     -0.02934858	      5.30021294	     -0.15466646	      0.00000000	      0.00000000	      9.56074711	      1.51295348	     -2.57761810	     15.65360733	    -21.00284397	     38.44932095	     65.38317327	     88.27315788	    -10.71939349	     -6.01944995	      3.45947042	    -16.40469429	     36.68524090	     51.47801600	     71.33502035	     -2.10559001	     -9.81736992
      2.67796610	      3.23545400	     -2.38708659	    101.28473460	      0.23584600	      0.64547936	      0.89321765	      7.58544111	      4.04292481	     -7.87844671	     15.73212986	      0.27457746	     31.20039418	     -5.20315963	      0.00000000	      6.88506328	     -1.84096547	     -3.75379706	     13.93838834	      0.24327077	     33.59696324	      2.16148043	      0.00000000	     -0.00330110	      0.51139341	     -0.10413481	     -0.00613047	      0.68015324	     -0.11064324	     -0.00542337	      1.24340194	     -0.11064324	     -0.00377282	      1.24340194	     -0.09111796	     -0.00306540	      1.04283344	     -0.08460953	     -0.00188625	      0.79214839	     -0.07810111	     -0.02357940	      5.78498455	     -0.57916658	      0.00000000	      0.00000000	      9.63562389	      1.01419031	     -1.89056373	     15.34897673	    -20.84765774	     39.66924481	     62.96486934	     87.99140702	    -12.12568404	     -5.61563270	      4.23451106	    -15.89522020	     38.29356717	     50.39786791	     69.32290051	     -3.00665846	     -9.06219391
      2.69491525	      3.35473885	     -2.36545618	    101.56727557	      0.23484409	      0.64592172	      0.89335964	      7.53892552	      4.07753779	     -8.23588248	     15.52512505	      0.27096455	     31.15706838	     -5.08895064	      0.00000000	      6.82360620	     -1.89137964	     -3.49258851	     13.71881962	      0.23943857	     33.30802538	      2.15313376	      0.00000000	     -0.00332757	      0.54346001	     -0.14513057	     -0.00617962	      0.72280181	     -0.15420123	     -0.00546686	      1.32136867	     -0.15420123	     -0.00380308	      1.32136867	     -0.12698924	     -0.00308998	      1.10822365	     -0.11791858	     -0.00190137	      0.84181956	     -0.10884792	     -0.02376848	      6.14772833	     -0.80717266	      0.00000000	      0.00000000	      9.52846468	      0.61965567	     -1.45954190	     14.64748534	    -20.70470986	     40.51159161	     60.70621516	     87.89696537	    -12.86705274	     -5.14806417	      4.94260307	    -15.24809916	     39.40162872	     49.04816038	     69.17928567	     -3.59280539	     -7.91492889
